<?xml version="1.0" encoding="utf-8"?>
<!-- Generator: Adobe Illustrator 27.5.0, SVG Export Plug-In . SVG Version: 6.00 Build 0)  -->
<svg version="1.1" xmlns="http://www.w3.org/2000/svg" xmlns:xlink="http://www.w3.org/1999/xlink" x="0px" y="0px"
	 viewBox="0 0 2500 2500" style="enable-background:new 0 0 2500 2500;" xml:space="preserve">
<g id="Background">
	<rect style="fill:#FFFFFF;" width="2500" height="2500"/>
</g>
<g id="Illustration">
	<g>
		<circle style="fill:#F2E6DC;" cx="1250" cy="1250" r="915"/>
		<g>
			<path style="fill:#F7F1EB;" d="M1683.932,910.627l6.348-13.607c7.202,1.876,14.463,3.147,21.721,3.844l1.305,14.948l50.623-4.42
				l-1.308-14.982c7.091-1.966,14.019-4.486,20.715-7.536l8.624,12.321l41.631-29.14l-8.605-12.293
				c5.115-5.198,9.861-10.837,14.175-16.902l13.607,6.348l21.484-46.051l-13.607-6.348c1.876-7.202,3.147-14.463,3.844-21.721
				l14.948-1.305l-4.42-50.623l-14.982,1.308c-1.966-7.091-4.486-14.018-7.536-20.716l12.321-8.624l-29.14-41.631l-12.293,8.604
				c-5.198-5.114-10.837-9.861-16.902-14.174l6.348-13.607l0,0l-46.051-21.484l-6.348,13.607
				c-7.202-1.876-14.463-3.147-21.721-3.844l-1.306-14.948l-50.623,4.42l1.308,14.982c-7.091,1.966-14.019,4.486-20.715,7.536
				l-8.624-12.32l-41.631,29.139l0,0l8.604,12.292c-5.114,5.198-9.861,10.837-14.174,16.902l-13.607-6.348l-21.484,46.051
				l13.607,6.348c-1.876,7.201-3.148,14.463-3.844,21.721l-14.948,1.305l0,0l4.42,50.623l14.982-1.308
				c1.966,7.091,4.486,14.019,7.536,20.716l-12.321,8.623l29.14,41.631l12.293-8.604c5.198,5.114,10.837,9.861,16.902,14.174
				l-6.348,13.607L1683.932,910.627z M1684.938,841.454c-41.78-21.139-60.208-71.796-41.776-114.839
				c20.353-47.53,76.481-67.948,122.615-44.605c41.779,21.139,60.208,71.796,41.776,114.839
				C1787.2,844.38,1731.073,864.797,1684.938,841.454z"/>
		</g>
		<g>
			<g>
				<path style="fill:#D3BBA3;" d="M546.307,1089.479c-0.108,0-0.215-0.009-0.325-0.024l-57.119-8.492
					c-0.577-0.086-1.098-0.398-1.447-0.868c-0.347-0.469-0.495-1.059-0.409-1.639l2.242-15.061
					c-6.838-2.433-13.535-5.342-19.953-8.666l-9.476,11.933c-0.364,0.458-0.896,0.751-1.475,0.818
					c-0.583,0.071-1.167-0.101-1.624-0.463l-45.218-35.914c-0.954-0.758-1.113-2.145-0.355-3.098l9.476-11.931
					c-4.698-5.508-9.048-11.371-12.96-17.469l-14.163,5.59c-0.543,0.217-1.15,0.209-1.688-0.028
					c-0.536-0.233-0.958-0.667-1.171-1.212l-21.204-53.712c-0.215-0.545-0.205-1.15,0.028-1.688
					c0.233-0.536,0.667-0.958,1.212-1.171l14.2-5.607c-1.305-7.127-2.136-14.372-2.476-21.592l-15.102-2.246
					c-1.204-0.179-2.035-1.3-1.856-2.506l8.492-57.117c0.181-1.204,1.288-2.026,2.506-1.856l15.061,2.239
					c2.429-6.83,5.338-13.524,8.666-19.951l-11.933-9.476c-0.954-0.758-1.113-2.145-0.355-3.098l35.912-45.218
					c0.756-0.952,2.14-1.109,3.098-0.355l11.933,9.476c5.501-4.694,11.364-9.043,17.469-12.96l-5.59-14.163
					c-0.448-1.133,0.108-2.414,1.24-2.859l53.71-21.204c1.13-0.452,2.414,0.108,2.859,1.24l5.609,14.2
					c7.123-1.305,14.37-2.136,21.592-2.478l2.244-15.1c0.181-1.204,1.303-2.026,2.506-1.856l57.118,8.49
					c0.577,0.086,1.098,0.398,1.447,0.868c0.347,0.469,0.495,1.059,0.409,1.639l-2.242,15.063c6.83,2.429,13.526,5.338,19.951,8.664
					l9.476-11.931c0.756-0.952,2.144-1.109,3.098-0.355l45.22,35.912c0.954,0.758,1.113,2.145,0.355,3.098l-9.476,11.933
					c4.694,5.501,9.041,11.364,12.96,17.471l14.163-5.592c1.128-0.448,2.416,0.105,2.859,1.24l21.204,53.71
					c0.448,1.133-0.108,2.414-1.24,2.859l-14.2,5.609c1.303,7.112,2.134,14.359,2.476,21.592l15.102,2.244
					c0.577,0.086,1.098,0.398,1.447,0.868c0.347,0.469,0.495,1.059,0.409,1.638l-8.492,57.119c-0.086,0.577-0.398,1.098-0.868,1.447
					c-0.471,0.347-1.051,0.493-1.639,0.409l-15.061-2.241c-2.429,6.828-5.338,13.524-8.666,19.951l11.933,9.476
					c0.457,0.364,0.752,0.894,0.818,1.475c0.067,0.581-0.099,1.165-0.463,1.624l-35.912,45.22c-0.364,0.459-0.894,0.751-1.475,0.818
					c-0.586,0.067-1.165-0.101-1.624-0.463l-11.933-9.478c-5.499,4.694-11.362,9.043-17.471,12.962l5.592,14.161
					c0.215,0.545,0.205,1.15-0.028,1.688c-0.232,0.536-0.667,0.958-1.212,1.171l-53.71,21.206c-0.545,0.215-1.152,0.209-1.688-0.028
					c-0.536-0.232-0.958-0.667-1.171-1.212l-5.609-14.2c-7.112,1.303-14.359,2.134-21.592,2.476l-2.244,15.102
					c-0.086,0.577-0.398,1.098-0.868,1.447C547.237,1089.328,546.777,1089.479,546.307,1089.479z M491.695,1076.926l52.756,7.844
					l2.188-14.725c0.157-1.051,1.04-1.841,2.101-1.878c8.223-0.295,16.48-1.242,24.544-2.816c1.025-0.2,2.082,0.362,2.472,1.354
					l5.467,13.845l49.608-19.585l-5.45-13.808c-0.392-0.988-0.021-2.114,0.881-2.679c6.989-4.373,13.668-9.327,19.85-14.728
					c0.805-0.7,1.987-0.726,2.823-0.067l11.636,9.241l33.169-41.767l-11.636-9.239c-0.833-0.661-1.074-1.824-0.575-2.762
					c3.865-7.256,7.179-14.885,9.849-22.671c0.347-1.008,1.356-1.61,2.411-1.466l14.684,2.183l7.844-52.756l-14.725-2.188
					c-1.051-0.157-1.841-1.04-1.878-2.102c-0.295-8.223-1.242-16.48-2.816-24.544c-0.205-1.042,0.366-2.082,1.354-2.472
					l13.847-5.467l-19.585-49.611l-13.81,5.452c-0.988,0.392-2.112,0.024-2.679-0.881c-4.371-6.987-9.325-13.666-14.725-19.85
					c-0.7-0.803-0.728-1.99-0.067-2.823l9.239-11.635l-41.767-33.169l-9.239,11.633c-0.659,0.833-1.822,1.079-2.763,0.575
					c-7.254-3.863-14.88-7.176-22.67-9.846c-1.005-0.344-1.621-1.359-1.466-2.412l2.185-14.687l-52.758-7.842l-2.188,14.723
					c-0.157,1.051-1.04,1.841-2.101,1.878c-8.208,0.295-16.467,1.242-24.544,2.816c-1.044,0.211-2.082-0.364-2.472-1.354
					l-5.467-13.845l-49.611,19.585l5.452,13.81c0.392,0.988,0.022,2.117-0.881,2.679c-6.987,4.369-13.666,9.323-19.85,14.725
					c-0.803,0.7-1.987,0.726-2.823,0.067l-11.636-9.239l-33.169,41.765l11.636,9.241c0.833,0.663,1.074,1.824,0.575,2.765
					c-3.865,7.252-7.179,14.878-9.849,22.666c-0.347,1.008-1.352,1.604-2.411,1.466l-14.684-2.183l-7.844,52.756l14.725,2.19
					c1.051,0.157,1.841,1.04,1.878,2.104c0.293,8.203,1.238,16.461,2.814,24.542c0.202,1.042-0.366,2.082-1.354,2.472l-13.845,5.465
					l19.585,49.613l13.81-5.452c0.988-0.394,2.114-0.024,2.678,0.881c4.364,6.978,9.319,13.657,14.725,19.85
					c0.7,0.803,0.728,1.99,0.067,2.823l-9.239,11.633l41.764,33.171l9.241-11.636c0.661-0.831,1.822-1.072,2.765-0.575
					c7.241,3.861,14.867,7.174,22.668,9.849c1.006,0.347,1.621,1.359,1.466,2.411L491.695,1076.926z M542.929,1015.471
					c-24.466,0-47.845-8.561-66.87-24.686c-41.609-35.268-48.713-97.184-16.17-140.958c17.322-23.299,42.716-37.949,71.508-41.252
					c28.785-3.299,56.843,5.217,78.99,23.988c41.609,35.266,48.711,97.182,16.17,140.958c-17.32,23.299-42.716,37.949-71.506,41.252
					C550.99,1015.241,546.945,1015.471,542.929,1015.471z M543.504,812.29c-3.848,0-7.717,0.222-11.606,0.667
					c-27.567,3.161-51.884,17.191-68.47,39.502c-31.16,41.911-24.358,101.193,15.481,134.963
					c21.206,17.977,48.077,26.124,75.638,22.972c27.569-3.163,51.884-17.193,68.47-39.504
					c31.158-41.913,24.359-101.196-15.481-134.963C589.319,820.487,566.928,812.29,543.504,812.29z"/>
			</g>
			<g>
				<g>
					<path style="fill:#F7F1EB;" d="M612.408,732.516l6.733-8.478c4.735,2.523,9.614,4.632,14.587,6.337l-1.591,10.701l36.24,5.388
						l1.594-10.725c5.302-0.19,10.582-0.795,15.79-1.812l3.982,10.086l34.079-13.454l-3.973-10.063
						c4.458-2.787,8.732-5.946,12.773-9.476l8.478,6.733l22.786-28.691l-8.478-6.733c2.523-4.736,4.632-9.614,6.337-14.587
						l10.701,1.591l5.388-36.24l-10.725-1.595c-0.19-5.302-0.795-10.582-1.811-15.79l10.086-3.982l-13.454-34.079l-10.063,3.973
						c-2.787-4.458-5.946-8.732-9.476-12.773l6.733-8.478l0,0l-28.691-22.786l-6.733,8.478c-4.735-2.523-9.614-4.632-14.587-6.337
						l1.591-10.701l-36.24-5.388l-1.594,10.725c-5.302,0.19-10.583,0.795-15.79,1.811l-3.982-10.086l-34.079,13.454l0,0
						l3.973,10.063c-4.458,2.787-8.732,5.946-12.773,9.476l-8.478-6.733l-22.786,28.691l8.478,6.733
						c-2.523,4.735-4.632,9.614-6.337,14.587l-10.701-1.591h0l-5.388,36.24l10.725,1.595c0.19,5.302,0.795,10.583,1.811,15.79
						l-10.086,3.981l13.454,34.079l10.063-3.973c2.787,4.458,5.946,8.732,9.476,12.773l-6.733,8.478L612.408,732.516z
						 M624.711,684.178c-25.753-21.828-30.183-60.441-10.042-87.534c22.241-29.917,65.023-34.825,93.461-10.721
						c25.753,21.828,30.183,60.441,10.042,87.534C695.93,703.374,653.148,708.282,624.711,684.178z"/>
				</g>
			</g>
		</g>
		<g>
			<g>
				<path style="fill:#E6D0BE;" d="M823.395,439.055c-14.98,0-26.087,11.629-26.087,26.609v1423.127
					c0,9.916,7.002,16.98,16.919,16.98h836.819c14.98,0,26.755-11.168,26.755-26.148V465.664c0-14.98-11.776-26.609-26.755-26.609
					H823.395z"/>
				<g>
					<path style="fill:#363E44;" d="M1676.172,1982.123H798.938c-27.668,0-50.177-22.509-50.177-50.175V389.707
						c0-27.666,22.509-50.175,50.177-50.175h877.234c27.668,0,50.177,22.509,50.177,50.175v1542.241
						C1726.349,1959.614,1703.84,1982.123,1676.172,1982.123z M798.938,343.942c-25.237,0-45.767,20.53-45.767,45.765v1542.241
						c0,25.235,20.53,45.765,45.767,45.765h877.234c25.237,0,45.767-20.53,45.767-45.765V389.707
						c0-25.235-20.53-45.765-45.767-45.765H798.938z"/>
					<path style="fill:#363E44;" d="M1309.386,392.601h-157.563c-1.219,0-2.205-0.986-2.205-2.205c0-1.219,0.986-2.205,2.205-2.205
						h157.563c1.219,0,2.205,0.986,2.205,2.205C1311.591,391.615,1310.604,392.601,1309.386,392.601z"/>
				</g>
			</g>
			<g>
				<g>
					<rect x="1124.624" y="533.892" style="fill:#D3BBA3;" width="221.558" height="208.27"/>
				</g>
				<rect x="1126.195" y="1077.154" style="fill:#D3BBA3;" width="222.226" height="208.898"/>
				<g>
					<rect x="842.861" y="804.011" style="fill:#D3BBA3;" width="222.001" height="208.687"/>
				</g>
				<g>
					<rect x="842.143" y="1076.512" style="fill:#F7F1EB;" width="221.558" height="208.27"/>
				</g>
				<g>
					<rect x="1127.187" y="803.607" style="fill:#F7F1EB;" width="221.558" height="208.27"/>
				</g>
				<rect x="1128.55" y="1618.314" style="fill:#D3BBA3;" width="222.226" height="208.898"/>
				<path style="fill:#F7F1EB;" d="M1361.8,1820.599h-222.226c-1.219,0-2.205-0.986-2.205-2.205v-208.898
					c0-1.219,0.986-2.205,2.205-2.205H1361.8c1.219,0,2.205,0.986,2.205,2.205v208.898
					C1364.005,1819.612,1363.019,1820.599,1361.8,1820.599z M1141.779,1816.189h217.816V1611.7h-217.816V1816.189z"/>
				<g>
					<rect x="845.216" y="1342.965" style="fill:#D3BBA3;" width="222.001" height="208.687"/>
				</g>
				<g>
					<rect x="1411.049" y="536.899" style="fill:#FFFFFF;" width="221.558" height="208.27"/>
				</g>
				<g>
					<path style="fill:#D3BBA3;" d="M1642.529,737.453H1420.97c-1.219,0-2.205-0.986-2.205-2.205V526.977
						c0-1.219,0.986-2.205,2.205-2.205h221.558c1.219,0,2.205,0.986,2.205,2.205v208.271
						C1644.734,736.467,1643.748,737.453,1642.529,737.453z M1423.175,733.043h217.149V529.182h-217.149V733.043z"/>
				</g>
				<rect x="1412.62" y="1080.161" style="fill:#F2E6DC;" width="222.226" height="208.898"/>
				<g>
					<rect x="1413.612" y="806.613" style="fill:#D3BBA3;" width="221.558" height="208.27"/>
				</g>
				<g>
					<rect x="1415.967" y="1345.568" style="fill:#D3BBA3;" width="221.558" height="208.27"/>
				</g>
				
					<rect x="841.9" y="531.651" transform="matrix(0.9999 -0.0114 0.0114 0.9999 -7.1985 10.9093)" style="fill:#F2E6DC;" width="223.029" height="210.569"/>
				<path style="fill:#D3BBA3;" d="M849.722,736.87c-1.206,0-2.192-0.971-2.205-2.179l-2.401-210.554
					c-0.013-1.219,0.962-2.216,2.179-2.231l223.014-2.543c0.553-0.037,1.148,0.22,1.568,0.629c0.418,0.409,0.657,0.967,0.663,1.55
					l2.401,210.556c0.006,0.586-0.22,1.15-0.629,1.568c-0.409,0.418-0.967,0.657-1.55,0.663l-223.014,2.541
					C849.739,736.87,849.731,736.87,849.722,736.87z M849.552,526.29l2.349,206.144l218.604-2.489l-2.349-206.146L849.552,526.29z"
					/>
				<rect x="1414.975" y="1621.321" style="fill:#F7F1EB;" width="222.226" height="208.898"/>
				<g>
					<rect x="1129.542" y="1342.561" style="fill:#FFFFFF;" width="221.558" height="208.27"/>
				</g>
				<g>
					<path style="fill:#D3BBA3;" d="M1362.125,1544.217h-221.558c-1.219,0-2.205-0.986-2.205-2.205V1333.74
						c0-1.219,0.986-2.205,2.205-2.205h221.558c1.219,0,2.205,0.986,2.205,2.205v208.271
						C1364.33,1543.23,1363.344,1544.217,1362.125,1544.217z M1142.771,1539.807h217.149v-203.862h-217.149V1539.807z"/>
				</g>
				<g>
					<rect x="844.498" y="1617.673" style="fill:#F2E6DC;" width="221.558" height="208.27"/>
				</g>
			</g>
		</g>
		<g>
			<circle style="fill:#EFBC73;" cx="1197.939" cy="940.894" r="266.128"/>
			<path style="fill:#363E44;" d="M1188.877,1218.265c-147.958,0-268.331-120.374-268.331-268.333
				c0-147.958,120.374-268.331,268.331-268.331c147.96,0,268.333,120.374,268.333,268.331
				C1457.21,1097.891,1336.836,1218.265,1188.877,1218.265z M1188.877,686.01c-145.527,0-263.922,118.395-263.922,263.922
				c0,145.529,118.395,263.924,263.922,263.924c145.529,0,263.924-118.395,263.924-263.924
				C1452.8,804.405,1334.405,686.01,1188.877,686.01z"/>
			<g>
				<path style="fill:#363E44;" d="M1099.196,1107.327c-10.917,0-19.671-3.617-26.045-10.764
					c-14.155-15.873-14.495-47.475-0.958-88.989c13.358-40.968,38.636-86.959,71.179-129.503
					c51.055-66.747,109.014-110.816,147.656-112.271c11.797-0.446,21.226,3.165,27.969,10.727
					c14.155,15.873,14.495,47.475,0.958,88.989c-13.358,40.968-38.636,86.959-71.179,129.501
					c-51.057,66.747-109.016,110.818-147.656,112.274C1100.471,1107.314,1099.829,1107.327,1099.196,1107.327z M1292.929,770.174
					c-0.573,0-1.15,0.011-1.736,0.032c-36.806,1.384-94.803,45.81-144.321,110.542c-66.261,86.627-97.856,182.124-70.432,212.877
					c5.829,6.535,14.116,9.646,24.511,9.256c36.808-1.387,94.805-45.81,144.323-110.545
					c66.261-86.625,97.856-182.122,70.432-212.875C1310.206,773.294,1302.55,770.174,1292.929,770.174z"/>
				<path style="fill:#363E44;" d="M1181.472,1023.171c-62.588,0-119.142-15.802-147.215-41.762
					c-12.019-11.117-18.325-23.4-18.739-36.513c-1.505-47.526,78.254-89.954,177.794-94.575
					c69.338-3.215,133.93,13.014,164.578,41.357c12.021,11.117,18.328,23.403,18.741,36.515
					c1.505,47.526-78.254,89.954-177.794,94.575C1193.011,1023.04,1187.214,1023.171,1181.472,1023.171z M1210.783,854.324
					c-5.712,0-11.468,0.133-17.266,0.403c-97.148,4.511-175.021,44.897-173.593,90.031c0.377,11.885,6.208,23.127,17.328,33.413
					c29.825,27.584,93.154,43.343,161.382,40.193c97.146-4.511,175.018-44.897,173.591-90.032
					c-0.377-11.888-6.208-23.129-17.331-33.415C1327.606,869.678,1272.246,854.324,1210.783,854.324z"/>
				<path style="fill:#363E44;" d="M1298.551,1098.062c-38.714,0-97.74-38.289-151.31-98.358
					c-35.144-39.409-63.261-82.93-79.175-122.546c-16.123-40.137-17.789-71.669-4.692-88.791c6.397-8.365,15.847-12.839,28.086-13.3
					c38.69-1.481,98.885,37.138,153.448,98.319c35.144,39.407,63.261,82.928,79.175,122.546
					c16.123,40.137,17.789,71.67,4.694,88.789c-6.397,8.365-15.849,12.839-28.09,13.3
					C1299.985,1098.049,1299.268,1098.062,1298.551,1098.062z M1150.531,996.767c52.898,59.317,113.199,98.237,149.99,96.848
					c10.865-0.409,19.193-4.304,24.755-11.573c25.407-33.219-12.12-125.505-83.658-205.72
					c-51.981-58.288-111.094-96.885-148.061-96.885c-0.652,0-1.292,0.011-1.931,0.034c-10.863,0.409-19.189,4.304-24.75,11.573
					C1041.466,824.263,1078.995,916.549,1150.531,996.767L1150.531,996.767z"/>
				
					<ellipse transform="matrix(0.9993 -0.0383 0.0383 0.9993 -34.7788 46.3247)" style="fill:#D87355;" cx="1190.962" cy="930.346" rx="22.891" ry="22.891"/>
			</g>
		</g>
		<g>
			<g>
				<path style="fill:#E6D0BE;" d="M1659.152,2041.005c6.356,11.529,13.524,27.443,18.074,47.272
					c7.045,30.7,4.615,56.847,1.756,73.042c-71.957,0-143.914,0-215.87,0c1.494-9.632,3.965-18.197,6.952-25.77
					c28.515-72.3,119.772-94.148,140.486-98.624C1626.751,2038.285,1642.952,2039.645,1659.152,2041.005z"/>
				<path style="fill:#E2A18D;" d="M1685.001,1968.028l-16.43,76.191c-3.628,15.362-18.463,25.767-34.021,23.101
					c-0.89-0.152-1.796-0.337-2.716-0.558c-14.405-3.453-24.096-16.99-23.01-31.762l7.109-74.551L1685.001,1968.028z"/>
				<path style="fill:#E6D0BE;" d="M2090.037,2018.38c0,0,35.997,69.512,29.564,142.94c-48.28,0-96.559,0-144.839,0
					c3.775-15.827,9.542-34.279,18.537-54.04c15.418-33.867,34.652-59.124,50.254-76.383L2090.037,2018.38z"/>
				<path style="fill:#E2A18D;" d="M2096.505,2035.143c1.028-25.373,0.901-72.186-10.649-109.859l-84.208,24.861
					c0,0,27.631,42.012,36.367,88.935c2.641,14.187,15.249,24.453,29.64,23.384c1.887-0.14,3.854-0.384,5.896-0.751
					C2086.465,2059.384,2095.974,2048.255,2096.505,2035.143z"/>
				<path style="fill:#8B865C;" d="M1950.539,1276.676c0,0,158.211,247.08,160.182,723.66h-115.536
					c0,0-138.547-411.825-229.791-514.503l33.751-229.859L1950.539,1276.676z"/>
				<path style="fill:#8B865C;" d="M1877.896,1537.13c0,0-146.259,241.054-180.144,463.206H1589.96
					c0,0-12.688-539.18,183.906-757.159l99.013,21.118L1877.896,1537.13z"/>
				<path style="fill:#363E44;" d="M1829.667,1581.897c-0.835,0-1.632-0.476-2.005-1.283l-61.255-133.015
					c-0.51-1.104-0.026-2.416,1.081-2.924c1.103-0.508,2.416-0.026,2.924,1.081l61.255,133.015c0.51,1.105,0.026,2.416-1.081,2.924
					C1830.29,1581.832,1829.975,1581.897,1829.667,1581.897z"/>
			</g>
			<g>
				<path style="fill:#E2A18D;" d="M1812.348,1092.167c0,0-122.173,87.759-224.344-10.258l-21.702-44.039
					c0,0-25.055,68.307-7.353,134.879c17.702,66.572,90.489,80.025,190.323,59.668L1812.348,1092.167z"/>
				<path style="fill:#D87355;" d="M2006.072,1356.559c-62.503-39.289-193.313-114.314-285.746-117.747
					c0,0-10.569-81.358,81.272-154.801c0,0,106.103-67.586,246.189-6.94c0,0,97.233,162.171,50.67,254.115
					C2081.238,1365.185,2038.339,1376.841,2006.072,1356.559z"/>
				<g>
					<g>
						<path style="fill:#E2A18D;" d="M2045.027,1075.512c0,45.509-2.207,84.21-6.051,149.948
							c-4.415,75.513-6.433,112.251,21.561,123.429C2215.371,1410.717,2174.15,1143.625,2045.027,1075.512z"/>
					</g>
					<g>
						<path style="fill:#E2A18D;" d="M2075.08,1232.39c0,0-92.972-37.853-143.671-54.442
							c-53.244-17.421-134.392-35.39-136.759-24.005c-1.349,6.484,9.212,11.223,38.28,22.012c-2.015,0.924-7.324,4.714-7.588,10.933
							c-0.391,9.204,6.856,12.081,7.402,12.595c-0.709,0.258-8.266,3.249-9.572,9.366c-1.47,6.89,1.57,12.19,6.082,15.387
							c-1.738,0.695-7.892,3.909-8.973,9.825c-1.112,6.085,2.145,13.245,8.308,15.161c11.307,3.515,45.11,13.318,60.979,20.094
							c31.228,13.334,135.769,75.569,185.996,82.91C2067.169,1309.101,2075.08,1232.39,2075.08,1232.39z"/>
						<g>
							<path style="fill:#363E44;" d="M1842.851,1249.158c-0.127,0-0.256-0.011-0.385-0.034c-1.199-0.211-2-1.354-1.787-2.554
								l1.742-9.857c0.213-1.199,1.352-2.002,2.554-1.787c1.199,0.211,2,1.357,1.787,2.554l-1.742,9.857
								C1844.832,1248.407,1843.902,1249.158,1842.851,1249.158z"/>
							<path style="fill:#363E44;" d="M1847.491,1225.463c-0.103,0-0.209-0.007-0.317-0.021c-1.206-0.174-2.041-1.292-1.869-2.498
								l1.619-11.198c0.172-1.206,1.303-2.056,2.495-1.867c1.206,0.172,2.041,1.292,1.867,2.496l-1.615,11.198
								C1849.513,1224.671,1848.57,1225.463,1847.491,1225.463z"/>
							<path style="fill:#363E44;" d="M1850.656,1200.243c-0.127,0-0.258-0.011-0.388-0.034c-1.199-0.213-1.998-1.359-1.785-2.556
								c0.331-1.869,0.618-3.553,0.904-5.239c0.278-1.636,0.558-3.273,0.878-5.084c0.213-1.199,1.326-2.005,2.556-1.785
								c1.199,0.213,1.998,1.356,1.785,2.556c-0.319,1.798-0.594,3.426-0.872,5.051c-0.289,1.697-0.575,3.391-0.911,5.271
								C1852.635,1199.494,1851.705,1200.243,1850.656,1200.243z"/>
							<path style="fill:#363E44;" d="M1855.255,1179.769c-0.181,0-0.364-0.021-0.545-0.069c-1.18-0.299-1.895-1.499-1.593-2.678
								l2.448-9.631c0.297-1.184,1.514-1.899,2.679-1.594c1.18,0.299,1.895,1.499,1.593,2.679l-2.448,9.631
								C1857.137,1179.106,1856.239,1179.769,1855.255,1179.769z"/>
						</g>
					</g>
				</g>
				<g>
					<g>
						<polygon style="fill:#363E44;" points="1605.769,1153.336 1698.36,1153.336 1637.298,1010.482 1544.707,1010.482 						"/>
						<path style="fill:#EFBC73;" d="M1616.349,1027.718c0,3.456,2.802,6.258,6.258,6.258c3.456,0,6.258-2.802,6.258-6.258
							c0-3.456-2.802-6.258-6.258-6.258C1619.151,1021.46,1616.349,1024.262,1616.349,1027.718z"/>
					</g>
					<g>
						<path style="fill:#E2A18D;" d="M1546.965,1059.306c0,9.375,0.79,16.976,17.028,16.976c16.238,0,41.775-7.6,41.775-16.976
							c0-9.375-25.536-16.975-41.775-16.975C1547.756,1042.331,1546.965,1049.931,1546.965,1059.306z"/>
						<path style="fill:#E2A18D;" d="M1614.391,1084.253c0-9.375-25.536-16.976-41.774-16.976c-16.238,0-17.029,7.6-17.029,16.976
							H1614.391z"/>
						<path style="fill:#E2A18D;" d="M1555.588,1084.253c0,9.375,0.79,16.976,17.029,16.976c16.238,0,41.774-7.6,41.774-16.976
							H1555.588z"/>
						<path style="fill:#E2A18D;" d="M1623.015,1109.2c0-9.375-25.537-16.976-41.775-16.976c-16.238,0-17.028,7.6-17.028,16.976
							H1623.015z"/>
						<path style="fill:#E2A18D;" d="M1564.211,1109.2c0,9.375,0.791,16.975,17.028,16.975c16.238,0,41.775-7.6,41.775-16.975
							H1564.211z"/>
						<path style="fill:#E2A18D;" d="M1619.576,1130.665c0-7.452-20.299-13.494-33.206-13.494s-13.536,6.041-13.536,13.494H1619.576
							z"/>
						<path style="fill:#E2A18D;" d="M1572.834,1130.665c0,7.452,0.628,13.494,13.536,13.494s33.206-6.041,33.206-13.494H1572.834z"
							/>
					</g>
				</g>
			</g>
			<g>
				
					<ellipse transform="matrix(0.3827 -0.9239 0.9239 0.3827 292.7705 2362.3384)" style="fill:#363E44;" cx="1914.129" cy="962.088" rx="59.753" ry="59.753"/>
				<path style="fill:#E2A18D;" d="M1872.857,991.872L1872.857,991.872c7.561-4.177,20.516-15.335,24.693-7.773l49.02,78.393
					c4.178,7.561-20.899,4.93-28.46,9.107l0,0c-7.561,4.178-17.077,1.435-21.255-6.127l-30.126-52.345
					C1862.552,1005.565,1865.296,996.049,1872.857,991.872z"/>
				<ellipse style="fill:#E2A18D;" cx="1920.784" cy="1068.547" rx="42.27" ry="12.726"/>
				<g>
					<path style="fill:#E2A18D;" d="M1833.29,1013.44c6.783,12.693,46.539,7.235,46.539,7.235l34.67-27.037
						c9.033-18.118,1.669-40.129-16.45-49.162c-18.118-9.033-40.129-1.669-49.162,16.45
						C1848.887,960.925,1826.382,1000.512,1833.29,1013.44z"/>
					<path style="fill:#E2A18D;" d="M1848.356,971.431c0,0-14.008,5.053-14.788,7.842c-0.93,3.329,8.396,10.293,8.396,10.293
						S1848.1,971.332,1848.356,971.431z"/>
					<g>
						<path style="fill:#FFFFFF;" d="M1878.662,984.788c0,0-4.019-5.692-10.64-8.993c-1.409-0.702-4.371,11.895-2.716,11.923
							C1872.584,987.843,1878.662,984.788,1878.662,984.788z"/>
						<g>
							<defs>
								<path id="SVGID_1_" d="M1878.662,984.788c0,0-5.912-8.372-15.206-10.697c-9.294-2.325-18.451,2.278-18.451,2.278
									s5.912,8.372,15.206,10.697C1869.505,989.391,1878.662,984.788,1878.662,984.788z"/>
							</defs>
							<clipPath id="SVGID_00000140729064045161265710000008999959515660795278_">
								<use xlink:href="#SVGID_1_"  style="overflow:visible;"/>
							</clipPath>
							<path style="clip-path:url(#SVGID_00000140729064045161265710000008999959515660795278_);fill:#363E44;" d="
								M1867.886,975.365c-2.196-6.562-9.295-10.102-15.857-7.906c-6.562,2.196-10.102,9.295-7.906,15.857
								c2.196,6.562,9.295,10.102,15.857,7.906C1866.542,989.027,1870.081,981.928,1867.886,975.365z"/>
						</g>
					</g>
					<path style="fill:#363E44;" d="M1849.545,1002.04c-2.571,0-4.991-1.359-6.326-3.607c-0.622-1.046-0.278-2.401,0.769-3.021
						c1.044-0.629,2.399-0.278,3.021,0.769c0.594,0.999,1.71,1.561,2.859,1.43c1.098-0.125,2.054-0.887,2.433-1.942
						c0.413-1.143,1.671-1.738,2.823-1.329c1.146,0.413,1.74,1.675,1.328,2.823c-0.943,2.618-3.333,4.515-6.087,4.83
						C1850.092,1002.025,1849.818,1002.04,1849.545,1002.04z"/>
				</g>
				<path style="fill:#363E44;" d="M1940.623,1000.303c0,0-51.513,2.273-84.086-49.24c-32.574-51.512,56.815-48.482,93.934-31.059
					C1974.245,931.164,1940.623,1000.303,1940.623,1000.303z"/>
				<path style="fill:#FFFFFF;" d="M1927.855,1043.07c-3.411,0-9.159-0.689-14.099-4.64c-5.224-4.181-8.139-10.85-8.666-19.818
					c-0.801-13.636,8.724-21.114,15.029-26.062c1.847-1.449,4.379-3.434,4.558-4.24c-0.099-0.047-1.113-1.354-9.015-3.469
					c-29.569-7.913-46.03-41.25-46.715-42.664c-0.532-1.096-0.075-2.414,1.021-2.945c1.1-0.53,2.414-0.075,2.945,1.021
					c0.159,0.327,16.289,32.945,43.89,40.331c8.307,2.222,11.612,4.112,12.198,6.972c0.642,3.129-2.36,5.484-6.158,8.464
					c-5.915,4.644-14.017,11.003-13.352,22.335c0.452,7.67,2.814,13.266,7.021,16.633c5.906,4.728,13.522,3.544,13.601,3.536
					c1.21-0.183,2.336,0.622,2.532,1.821c0.196,1.202-0.62,2.334-1.822,2.532C1930.693,1042.898,1929.571,1043.07,1927.855,1043.07z
					"/>
				<path style="fill:#363E44;" d="M2009.499,789.845c0,0,51.046,112.664-67.844,164.598c0,0,53.103-92.745-35.939-168.481
					L2009.499,789.845z"/>
			</g>
		</g>
		<rect x="338.427" y="1817.574" style="fill:#EFBC73;" width="720.94" height="343.935"/>
		<g>
			<g>
				<path style="fill:#D87355;" d="M968.571,1395.107l-51.066-51.066c-6.081-6.081-15.659-6.899-22.683-1.936l-41.933,29.628
					c-7.984,7.984-18.812,12.469-30.103,12.469H495.213c-60.843,0-112.349,44.908-120.637,105.184l-37.167,239.447h300.745
					l60.665-219.428h140.544c34.382,0,67.376-13.557,91.826-37.73l39.161-53.666C975.479,1410.979,974.724,1401.26,968.571,1395.107
					z"/>
				<g>
					<path style="fill:#84524D;" d="M848.823,1391.288c0,0-0.001-0.005,0.001-0.007c73.761-67.708,124.794-117.161,141.149-131.808
						c1.713-1.534,4.723-4.255,9.449-6.599c17.508-8.686,30.498,1.723,53.075,0.99c25.617-0.831,39.572-15.803,43.949-10.936
						c3.045,3.385-0.629,10.514-12.808,21.144c0,0,0,0.003,0.002,0.002c10.182-7.012,24.405-15.919,28.264-10.281
						c4.108,6.748-11.374,19.175-21.107,26.235c11.781-8.546,20.602-9.565,21.97-5.885c2.153,5.792-5.439,14.546-21.447,25.236
						l0,0.001c13.115-4.294,16.937-3.38,17.353,0.167c0.76,6.477-12.566,15.018-25.505,20.762
						c-14.566,6.467-28.105,6.43-36.642,6.203c-0.002,0-0.005,0.001-0.006,0.003c-46.744,52.778-79.162,84.826-113.617,130.172
						C910.943,1485.586,839.11,1445.335,848.823,1391.288z"/>
					<path style="fill:#363E44;" d="M847.758,1393.669c-0.594,0-1.189-0.241-1.623-0.713c-0.825-0.898-0.764-2.293,0.131-3.116
						c9.814-9.011,20.009-18.418,30.71-28.346c0.891-0.829,2.287-0.779,3.116,0.118c0.827,0.891,0.775,2.287-0.118,3.116
						c-10.705,9.932-20.905,19.344-30.723,28.359C848.826,1393.477,848.292,1393.669,847.758,1393.669z"/>
					<path style="fill:#84524D;" d="M1031.945,1259.366c17.548-18.309,19.998-28.632,17.007-31.321
						c-5.029-4.521-26.409,4.978-55.427,28.506C1004.159,1258.295,1021.311,1257.622,1031.945,1259.366z"/>
					<g>
						<path style="fill:#363E44;" d="M1016.537,1300.907c-0.549,0-1.096-0.202-1.524-0.611c-0.878-0.842-0.911-2.237-0.069-3.118
							c3.322-3.473,9.03-8.014,17.352-9.92c11.78-2.689,21.413,1.716,25.009,3.738c1.061,0.599,1.438,1.942,0.842,3.004
							c-0.599,1.059-1.942,1.434-3.004,0.842c-3.15-1.774-11.597-5.643-21.861-3.286c-7.258,1.662-12.245,5.633-15.152,8.671
							C1017.697,1300.679,1017.118,1300.907,1016.537,1300.907z"/>
						<path style="fill:#363E44;" d="M1037.586,1255.988c-0.108,0-0.22-0.009-0.329-0.024c-3.057-0.461-5.928-1.018-8.703-1.561
							c-5.708-1.111-11.097-2.177-16.362-1.912c-1.201,0.069-2.248-0.881-2.306-2.099c-0.056-1.217,0.883-2.248,2.099-2.306
							c5.807-0.271,11.44,0.825,17.41,1.99c2.73,0.532,5.553,1.083,8.516,1.527c1.204,0.181,2.035,1.305,1.854,2.508
							C1039.599,1255.204,1038.66,1255.988,1037.586,1255.988z"/>
						<path style="fill:#363E44;" d="M1061.451,1272.641c-1.145,0-2.112-0.885-2.196-2.045c-0.088-1.214,0.825-2.27,2.039-2.358
							c2.946-0.215,5.88-0.704,8.722-1.451c4.134-1.09,8.111-2.732,11.825-4.881c1.049-0.616,2.401-0.252,3.012,0.803
							c0.612,1.053,0.25,2.403-0.803,3.012c-4.054,2.347-8.397,4.14-12.91,5.329c-3.107,0.818-6.311,1.35-9.528,1.585
							C1061.559,1272.639,1061.505,1272.641,1061.451,1272.641z"/>
						<path style="fill:#363E44;" d="M1070.096,1287.435c-1.146,0-2.112-0.885-2.196-2.046c-0.088-1.214,0.825-2.269,2.039-2.358
							c2.946-0.215,5.878-0.704,8.72-1.453c4.123-1.085,8.102-2.728,11.825-4.879c1.057-0.618,2.403-0.252,3.012,0.803
							c0.612,1.055,0.25,2.403-0.803,3.012c-4.065,2.351-8.408,4.143-12.91,5.327c-3.103,0.818-6.309,1.352-9.526,1.587
							C1070.204,1287.433,1070.15,1287.435,1070.096,1287.435z"/>
						<path style="fill:#363E44;" d="M1069.446,1308.267c-1.146,0-2.112-0.885-2.196-2.046c-0.088-1.214,0.825-2.272,2.039-2.358
							c2.939-0.213,5.874-0.7,8.722-1.451c4.134-1.089,8.111-2.732,11.825-4.881c1.051-0.618,2.401-0.25,3.012,0.803
							s0.25,2.403-0.803,3.012c-4.054,2.347-8.397,4.14-12.91,5.329c-3.111,0.82-6.317,1.354-9.528,1.585
							C1069.554,1308.264,1069.5,1308.267,1069.446,1308.267z"/>
					</g>
				</g>
				<g>
					<path style="fill:#363E44;" d="M765.067,1531.348H623.491l73.598-179.415h132.645c7.742,0,13.009,7.854,10.071,15.017
						l-64.667,157.644C773.462,1528.68,769.483,1531.348,765.067,1531.348z"/>
					<path style="fill:#E6D0BE;" d="M758.104,1528.027H625.246c-1.219,0-2.205-0.986-2.205-2.205s0.986-2.205,2.205-2.205h132.858
						c3.264,0,6.173-1.951,7.409-4.967l60.688-147.938c1.029-2.513,0.754-5.247-0.76-7.502c-1.512-2.256-3.936-3.548-6.651-3.548
						c-1.219,0-2.205-0.986-2.205-2.205c0-1.219,0.986-2.205,2.205-2.205c4.147,0,8.003,2.056,10.313,5.501
						c2.31,3.445,2.75,7.794,1.176,11.631l-60.686,147.938C767.674,1525.002,763.166,1528.027,758.104,1528.027z"/>
				</g>
				<g>
					<path style="fill:#84524D;" d="M729,1471.324c-5.562-13.506-51,6.329-57.36,8.454c0.372-0.43,60.024-26.314,55.759-39.401
						c-4.144-12.716-53.456,10.87-65.39,15.002c9.663-5.36,53.119-29.146,49.184-38.668c-8.346-20.195-99.044,35.719-117.492,45.863
						c-5.856,3.22-43.004,25.49-81.243,47.903l50.43,96.436c14.075-9.096,29.965-19.761,48.511-32.578
						c29.124-20.126,52.361-38.37,68.745-47.395c4.906-4.304,45.521-17.984,40.858-29.354c-3.48-8.486-34.38,3.356-42.795,5.024
						C684.161,1498.464,734.356,1484.33,729,1471.324z"/>
					<g>
						<path style="fill:#363E44;" d="M637.454,1463.011c-0.831,0-1.626-0.469-2-1.27l-3.923-8.393
							c-0.515-1.104-0.039-2.416,1.064-2.932c1.111-0.508,2.418-0.039,2.933,1.066l3.923,8.391c0.515,1.102,0.039,2.416-1.064,2.932
							C638.085,1462.944,637.766,1463.011,637.454,1463.011z"/>
						<path style="fill:#363E44;" d="M647.436,1484.292c-0.831,0-1.626-0.469-2-1.272l-3.923-8.391
							c-0.515-1.102-0.039-2.416,1.064-2.932c1.105-0.508,2.418-0.037,2.933,1.064l3.923,8.393c0.515,1.105,0.039,2.416-1.064,2.933
							C648.065,1484.226,647.748,1484.292,647.436,1484.292z"/>
						<path style="fill:#363E44;" d="M657.84,1505.852c-0.831,0-1.626-0.469-2-1.273l-3.923-8.393
							c-0.515-1.102-0.039-2.416,1.066-2.93c1.107-0.51,2.416-0.039,2.93,1.066l3.923,8.391c0.515,1.105,0.039,2.416-1.064,2.933
							C658.469,1505.785,658.152,1505.852,657.84,1505.852z"/>
						<path style="fill:#363E44;" d="M666.873,1525.598c-0.829,0-1.623-0.469-1.998-1.27l-3.925-8.395
							c-0.515-1.102-0.039-2.416,1.066-2.931c1.104-0.515,2.416-0.039,2.93,1.066l3.921,8.391c0.517,1.102,0.041,2.416-1.062,2.93
							C667.503,1525.532,667.185,1525.598,666.873,1525.598z"/>
					</g>
				</g>
				<g>
					<path style="fill:#363E44;" d="M445.682,1664.605c-13.194,0-29.201-3.785-44.605-17.156c-0.919-0.797-1.018-2.19-0.22-3.109
						c0.797-0.924,2.19-1.021,3.109-0.22c29.942,25.984,62.28,13.332,68.457,10.531c24.813-11.246,49.275-23.84,87.577-48.502
						l-24.285-46.441c-0.564-1.081-0.149-2.411,0.93-2.976c1.083-0.573,2.414-0.146,2.976,0.93l25.22,48.226
						c0.53,1.01,0.2,2.257-0.756,2.874c-39.506,25.53-64.487,38.414-89.84,49.906
						C470.82,1660.222,459.878,1664.605,445.682,1664.605z"/>
					<path style="fill:#363E44;" d="M442.041,1552.868c-0.786,0-1.546-0.42-1.944-1.161c-0.577-1.072-0.174-2.409,0.898-2.987
						c14.941-8.029,37.951-21.161,70.348-40.145c1.051-0.62,2.401-0.265,3.017,0.786s0.265,2.403-0.786,3.016
						c-32.444,19.014-55.502,32.172-70.49,40.227C442.752,1552.784,442.395,1552.868,442.041,1552.868z"/>
				</g>
			</g>
			<g>
				<path style="fill:#363E44;" d="M939.623,1699.209l-215.571,103.885c-68.68,33.097-42.889,50.285-119.128,50.285H468.081
					l411.683-278.385c34.301-16.53,75.508-2.123,92.037,32.178l0,0C988.331,1641.473,973.924,1682.679,939.623,1699.209z"/>
				<path style="fill:#E6D0BE;" d="M675.586,1883.267c-39.112,90.143-92.956,136.331-162.694,135.094l40.674-196.105l63.916-15.979
					L675.586,1883.267z"/>
				<path style="fill:#8B865C;" d="M962.123,1689.872l-285.585,222.122l-85.438-109.849l285.585-222.122
					c28.86-22.447,70.452-17.248,92.898,11.612l4.152,5.338C996.182,1625.833,990.983,1667.426,962.123,1689.872z"/>
				<g>
					<polygon style="fill:#84524D;" points="891.142,1776.591 831.767,1815.313 867.908,1883.723 933.737,1857.908 					"/>
					<path style="fill:#E6D0BE;" d="M852.419,1848.376l19.107,94.722l224.662,0c-23.938-47.937-79.657-85.546-167.156-112.83
						L852.419,1848.376z"/>
				</g>
				<g>
					<g>
						<path style="fill:#8B865C;" d="M879.835,1688.183l-45.344-61.851l-22.672-30.925l-11.336-15.463l-1.417-1.933l-0.376-0.51
							l-1.064-1.334l-2.17-2.639c-1.477-1.739-2.938-3.479-4.522-5.132c-1.602-1.644-3.242-3.26-4.913-4.84
							c-0.837-0.789-1.674-1.576-2.533-2.341l-2.663-2.211c-1.792-1.457-3.615-2.88-5.463-4.262
							c-1.878-1.339-3.813-2.607-5.76-3.855c-1.95-1.245-3.914-2.464-5.961-3.528c-16.224-8.871-34.5-13.704-52.968-13.782
							c-9.231-0.159-18.503,1.052-27.557,3.164c-2.252,0.586-4.497,1.22-6.728,1.899l-3.333,1.054l-3.272,1.231
							c-2.175,0.844-4.335,1.733-6.472,2.665c-2.112,0.97-4.18,2.035-6.243,3.115c-4.167,2.121-8.016,4.639-11.843,7.238
							l-5.061,3.537l-7.848,5.506l-15.695,11.012l-62.781,44.048l-125.562,88.095c-1.134,0.803-2.475,1.792-3.58,2.661
							c-35.323,27.791-41.429,78.955-13.638,114.279c27.791,35.323,78.955,41.429,114.278,13.638l120.547-94.842l60.274-47.421
							l0.614-0.483l15.788,19.23l48.664,59.274l78.722,95.885l99.536-85.173L879.835,1688.183z M686.431,1669.245
							c-0.456-0.524-0.939-0.993-1.356-1.539c-0.212-0.267-0.415-0.542-0.608-0.822l-0.283-0.425l0.36,0.435l1.521,1.852
							l0.705,0.859C686.661,1669.481,686.536,1669.372,686.431,1669.245z"/>
					</g>
					<path style="fill:#363E44;" d="M798.91,1808.483c-0.64,0-1.273-0.276-1.71-0.81l-69.508-84.954
						c-0.771-0.941-0.631-2.33,0.312-3.103c0.941-0.769,2.328-0.633,3.103,0.312l69.508,84.954c0.771,0.941,0.631,2.33-0.312,3.103
						C799.894,1808.319,799.401,1808.483,798.91,1808.483z"/>
					<path style="fill:#363E44;" d="M899.963,1717.842c-0.678,0-1.348-0.312-1.781-0.902l-75.627-103.161
						c-0.719-0.982-0.508-2.36,0.476-3.081c0.977-0.723,2.358-0.508,3.081,0.476l75.627,103.161c0.719,0.982,0.508,2.36-0.476,3.081
						C900.872,1717.704,900.416,1717.842,899.963,1717.842z"/>
				</g>
			</g>
			<g>
				<path style="fill:#84524D;" d="M596.273,1401.361c-0.823,7.329-25.116,10.618-54.261,7.346
					c-29.144-3.272-52.103-11.866-51.281-19.196c0.823-7.329,25.116-10.618,54.261-7.346
					C574.136,1385.437,597.096,1394.031,596.273,1401.361z"/>
				<path style="fill:#84524D;" d="M597.751,1344.096c-15.337,11.397-59.982-17.686-59.982-17.686l-26.308-52.113
					c-0.579-26.875,20.738-49.13,47.613-49.709c26.875-0.579,49.13,20.738,49.709,47.613
					C608.784,1272.2,613.373,1332.488,597.751,1344.096z"/>
				
					<rect x="512.768" y="1273.1" transform="matrix(0.9998 -0.0215 0.0215 0.9998 -28.6173 11.9878)" style="fill:#84524D;" width="58.979" height="123.05"/>
				<path style="fill:#84524D;" d="M603.468,1285.116c0,0,13.957,14.006,13.312,17.797c-0.77,4.525-15.914,7.601-15.914,7.601
					S603.831,1285.142,603.468,1285.116z"/>
				<g>
					<path style="fill:#FFFFFF;" d="M559.508,1283.979c0,0,8.052-4.557,17.873-4.768c2.089-0.045-1.492,16.76-3.496,15.856
						C565.075,1291.092,559.508,1283.979,559.508,1283.979z"/>
					<g>
						<defs>
							<path id="SVGID_00000024002631543604449170000008582516050898090633_" d="M559.508,1283.979c0,0,11.843-6.703,24.321-4.227
								c12.477,2.476,20.864,13.192,20.864,13.192s-11.843,6.703-24.32,4.227C567.895,1294.696,559.508,1283.979,559.508,1283.979z"
								/>
						</defs>
						<clipPath id="SVGID_00000155825516998627761700000010882086555887911336_">
							<use xlink:href="#SVGID_00000024002631543604449170000008582516050898090633_"  style="overflow:visible;"/>
						</clipPath>
						<path style="clip-path:url(#SVGID_00000155825516998627761700000010882086555887911336_);fill:#363E44;" d="M577.787,1278.772
							c6.355-6.635,16.886-6.862,23.521-0.507c6.635,6.355,6.862,16.886,0.507,23.521c-6.355,6.635-16.886,6.862-23.521,0.507
							C571.659,1295.938,571.432,1285.407,577.787,1278.772z"/>
					</g>
				</g>
				<path style="fill:#363E44;" d="M588.851,1321.403c-1.645,0-3.288-0.446-4.737-1.341c-2.9-1.798-4.56-5.161-4.229-8.572
					c0.116-1.21,1.163-2.104,2.407-1.981c1.212,0.116,2.099,1.195,1.981,2.407c-0.17,1.75,0.68,3.477,2.162,4.397
					c1.539,0.945,3.512,0.904,5.03-0.116c1.008-0.685,2.381-0.416,3.06,0.596c0.68,1.01,0.413,2.379-0.596,3.06
					C592.398,1320.884,590.623,1321.403,588.851,1321.403z"/>
				<path style="fill:#363E44;" d="M582.87,1348.13c-0.112,0-0.226-0.009-0.342-0.026c-19.335-3.014-44.807-18.319-45.881-18.969
					c-1.042-0.629-1.376-1.985-0.745-3.027c0.627-1.042,1.979-1.376,3.027-0.745c0.256,0.155,25.807,15.505,44.279,18.384
					c1.204,0.187,2.026,1.316,1.839,2.519C584.877,1347.353,583.938,1348.13,582.87,1348.13z"/>
				<path style="fill:#363E44;" d="M543.93,1286.105c0,0,0-58.084,60.665-46.467c36.96,7.077,33.56-25.815,33.56-25.815
					l-14.198,3.872c0,0,23.233-21.943,9.035-43.886c-17.698-27.351-63.247,7.745-99.388,29.687
					c-12.131,7.366-23.536,14.149-33.334,19.912c-17.868,10.509-23.832,33.51-13.308,51.369l23.408,39.723l2.389,20.011
					l14.391-45.826L543.93,1286.105z"/>
				
					<ellipse transform="matrix(0.7071 -0.7071 0.7071 0.7071 -759.5326 747.5712)" style="fill:#84524D;" cx="522.632" cy="1290.623" rx="17.425" ry="17.425"/>
				<path style="fill:#363E44;" d="M517.544,1301.424c-0.385,0-0.775-0.101-1.128-0.312c-0.779-0.465-1.518-0.997-2.194-1.578
					c-2.721-2.328-4.519-5.439-5.06-8.757c-0.562-3.456,0.295-6.72,2.409-9.192c1.081-1.26,2.414-2.229,3.964-2.881
					c1.113-0.463,2.414,0.052,2.887,1.178c0.472,1.122-0.056,2.414-1.178,2.887c-0.913,0.383-1.695,0.952-2.325,1.686
					c-1.255,1.466-1.755,3.46-1.404,5.613c0.372,2.291,1.643,4.464,3.578,6.119c0.489,0.42,1.021,0.803,1.583,1.139
					c1.046,0.624,1.387,1.979,0.762,3.023C519.025,1301.041,518.295,1301.424,517.544,1301.424z"/>
			</g>
		</g>
	</g>
</g>
</svg>
